<svg width="20" height="25" viewBox="0 0 20 25" fill="none" xmlns="http://www.w3.org/2000/svg">
<path d="M13.6132 3.91803C14.0776 3.38286 14.4316 2.76125 14.655 2.08888C14.8785 1.41651 14.9669 0.70663 14.9152 0C13.4897 0.115068 12.1664 0.785516 11.2305 1.8669C10.7823 2.38518 10.4427 2.98811 10.2317 3.64001C10.0208 4.29191 9.94273 4.97951 10.0023 5.6621C10.6976 5.66789 11.385 5.5136 12.0112 5.21117C12.6373 4.90874 13.1855 4.46627 13.6132 3.91803V3.91803ZM16.7084 13.056C16.7166 12.1149 16.9645 11.1913 17.4287 10.3726C17.8929 9.55382 18.558 8.86685 19.3613 8.37647C18.8543 7.64597 18.1841 7.04364 17.4038 6.61726C16.6235 6.19087 15.7546 5.95215 14.866 5.92003C12.95 5.72351 11.1814 7.03771 10.1619 7.03771C9.14252 7.03771 7.7055 5.94459 6.10882 5.96916C5.06499 6.00354 4.04789 6.30787 3.15672 6.85247C2.26556 7.39708 1.53075 8.16335 1.02398 9.07655C-1.13769 12.8349 0.471281 18.4233 2.63295 21.457C3.61553 22.9432 4.84375 24.6258 6.465 24.5644C8.08625 24.503 8.61439 23.5573 10.4936 23.5573C12.3727 23.5573 12.95 24.5644 14.5467 24.5276C16.1434 24.4907 17.2733 23.0046 18.3051 21.5184C19.0359 20.4395 19.6068 19.2605 20 18.018C19.0266 17.6029 18.1961 16.9117 17.6112 16.0299C17.0262 15.1481 16.7123 14.1142 16.7084 13.056V13.056Z" fill="black"/>
</svg>
